<?xml version="1.0" encoding="UTF-8"?>
<svg id="logosandtypes_com" data-name="logosandtypes com" xmlns="http://www.w3.org/2000/svg" viewBox="0 0 150 150">
  <defs>
    <style>
      .cls-1 {
        fill: none;
      }
    </style>
  </defs>
  <g id="Layer_2" data-name="Layer 2">
    <path id="Layer_3" data-name="Layer 3" class="cls-1" d="M0,0H150V150H0V0Z"/>
  </g>
  <path d="M94.48,26.18c8.99,2.5,17.56,7.02,23.26,14.62,6.49,7.71,7.92,22.85-3.95,26.06-16.01,4.38-26.25-7.05-26.54-22.47-.3-4.03-.07-8.06-.26-12.02-6.25-2.27-15.87-1.31-22.44,.63V116.03c7.57,2.44,15.2,2.2,22.96,.88,.7-11.1,1.15-24.1,10.89-31.34,17.82-11.26,32.84,8.59,18.63,23.7-5.96,7.02-13.89,10.9-22.51,13.58-.76,4.35-.48,8.97-2.23,13.21-3.36,11.12-17.29,15.61-26.97,9.65-8.42-5.02-8.33-15.59-8.08-24.23-39.1-17.14-38.71-76.44-.08-93.89,.27-3.83-.25-7.96,.92-11.74,2.75-13.55,20.37-18.78,30.42-9.57,6.24,5.24,5.55,12.65,5.98,19.9Zm-37.48,10.03c-29.28,13.84-29.48,63.07,.07,76.55,.3-1.8,.23-75.46-.07-76.55Zm37.42-2.53c-.35,7-.39,14.65,2.69,21.12,2.69,5.34,9.84,6.83,15.15,4.91,2.18-.92,3.34-2.56,3.27-4.93-.84-11.1-11.37-17.94-21.11-21.1Zm.41,81.44c6.15-2.14,11.67-5.05,16.13-9.84,1.77-1.91,3.2-4.04,4.11-6.52,1.97-5.23-2.44-10.09-7.5-9.05-11.66,1.55-11.87,16.21-12.74,25.41Zm-30.33,8.57c-.71,8.66,1.1,18.68,12.02,17.18,8.3-.32,10.36-9.67,10.45-16.51-7.58,1.09-14.97,1.12-22.48-.68ZM86.97,24.64c1.14-8.32-2.27-16.41-11.84-15.62-8.3,.03-11.62,9.26-10.51,16.32,7.36-1.89,14.75-1.77,22.34-.7Z"/>
</svg>